# xmcd
#
# Track frame offsets:
#	150
#	36387
#	52697
#	67857
#	78857
#	99632
#	113167
#	136632
#	147917
#	163020
#	183022
#	209497
#	224787
#	240810
#	266952
#	288107
#	306330
#	325560
#
# Disc length: 4694 seconds
#
# Revision: 3
# Processed by: cddbd v1.5.1PL2 Copyright (c) Steve Scherf et al.
# Submitted via: EasyCDDAExtractor 9.0.0.1
#
DISCID=f9125412
DTITLE=Lightnin' Hopkins - The Complete Prestige/Bluesville Recordings - Disc 
DTITLE=4
DYEAR=1991
DGENRE=Blues
TTITLE0=Blues Is A Feeling
TTITLE1=Me And Ray Charles
TTITLE2=In The Evening
TTITLE3=Ain't It Crazy
TTITLE4=Last Night I Lost The Best Friend I Ever Had
TTITLE5=Everything
TTITLE6=I Work Down On The Chain Gang
TTITLE7=Meet Me In The Bottom
TTITLE8=Business You're Doin'
TTITLE9=Wake Up Old Lady
TTITLE10=Stranger Here
TTITLE11=Don't Embarrass Me, Baby
TTITLE12=Little Sister's Boogie
TTITLE13=Goin' Away
TTITLE14=You Better Stop Her
TTITLE15=I'm Wit' It
TTITLE16=Let's Go Sit On The Lawn
TTITLE17=I Woke Up This Morning
EXTD=
EXTT0=
EXTT1=
EXTT2=
EXTT3=
EXTT4=
EXTT5=
EXTT6=
EXTT7=
EXTT8=
EXTT9=
EXTT10=
EXTT11=
EXTT12=
EXTT13=
EXTT14=
EXTT15=
EXTT16=
EXTT17=
PLAYORDER=
